# xmcd
#
# Track frame offsets: 
#        150
#        6991
#        27280
#        35899
#        40075
#        49596
#        50640
#        52117
#        53048
#        69052
#        90579
#        110911
#        136338
#        141817
#        151127
#        160537
#        179968
#        192503
#        199298
#        205135
#        207189
#        208553
#        213984
#
# Disc length: 3003 seconds
#
# Revision: 0
# Processed by: cddbd v1.5.2PL0 Copyright (c) Steve Scherf et al.
# Submitted via: ExactAudioCopy v0.95b4
#
DISCID=580bb917
DTITLE=The Beatles  - AB  Road - Complete Purple Chick Set v1.1 Jan.25
DTITLE=Various Artist - D6  FLAC
DYEAR=1900
DGENRE=
TTITLE0=Let It Be 25.72
TTITLE1=Let It Be 25.73
TTITLE2=Window, Window 25.74
TTITLE3=I'm Talkin' About You 25.75
TTITLE4=Let It Be 25.76
TTITLE5=Let It Be 25.77
TTITLE6=Instrumental 25.78
TTITLE7=Instrumental 25.79
TTITLE8=Let It Be 25.80
TTITLE9=Let It Be 25.81
TTITLE10=Let It Be 25.81P
TTITLE11=Let It Be 25.81P
TTITLE12=Martha My Dear 25.82
TTITLE13=Let It Be 25.83
TTITLE14=Let It Be 25.84
TTITLE15=Let It Be 25.85
TTITLE16=Let It Be 25.86
TTITLE17=Well Its Eight O' Clock 25.87
TTITLE18=Love Story 25.88
TTITLE19=Cannonball 25.89
TTITLE20=Shazam! 25.90
TTITLE21=Last Train To San Francisco 25.91
TTITLE22=Isn't It A Pity 25.92
EXTD=
EXTT0=
EXTT1=
EXTT2=
EXTT3=
EXTT4=
EXTT5=
EXTT6=
EXTT7=
EXTT8=
EXTT9=
EXTT10=
EXTT11=
EXTT12=
EXTT13=
EXTT14=
EXTT15=
EXTT16=
EXTT17=
EXTT18=
EXTT19=
EXTT20=
EXTT21=
EXTT22=
PLAYORDER=
